<svg xmlns="http://www.w3.org/2000/svg" width="24" height="25" viewBox="0 0 24 25"><g fill="none" fill-rule="evenodd"><g fill="#000" fill-rule="nonzero" stroke="#000" stroke-linejoin="round"><path d="M4.77 20.08c1.797-.514 5.358.228 7.155-1.06 1.797 1.288 5.358.546 7.155 1.06 0 0 .875.286 1.59 1.06-.36.514-.874.525-1.59.265-1.797-.514-5.358.244-7.155-.53-1.797.774-5.358.016-7.155.53-.718.26-1.231.25-1.59-.265.718-1.028 1.59-1.06 1.59-1.06z"/><path d="M7.95 17.96c1.325 1.325 6.625 1.325 7.95 0 .265-.795 0-1.06 0-1.06 0-1.325-1.325-2.12-1.325-2.12 2.915-.795 3.18-6.095-2.65-8.215-5.83 2.12-5.565 7.42-2.65 8.215 0 0-1.325.795-1.325 2.12 0 0-.265.265 0 1.06zm5.3-12.72a1.325 1.325 0 1 1-2.65 0 1.325 1.325 0 0 1 2.65 0z"/></g><path stroke="#FFF" stroke-linecap="round" d="M9.275 14.78h5.3M7.95 16.9h7.95m-3.975-7.685v2.65M10.6 10.54h2.65"/></g></svg>