<svg xmlns="http://www.w3.org/2000/svg" width="23" height="23" viewBox="0 0 23 23"><g fill="none"><path fill="#000" stroke="#000" d="M11.66 4.3c5.565.53 8.745 4.24 8.48 15.37H7.95c0-4.77 5.3-3.445 4.24-11.13"/><path fill="#000" stroke="#000" d="M12.72 8.54c.201 1.542-2.942 3.906-4.24 4.77-1.59 1.06-1.495 2.3-2.65 2.12-.552-.498.747-1.611 0-1.59-.53 0 .1.652-.53 1.06-.53 0-2.122.53-2.12-2.12 0-1.06 3.18-6.36 3.18-6.36s1.002-1.007 1.06-1.855c-.387-.527-.265-1.06-.265-1.59.53-.53 1.59 1.325 1.59 1.325h1.06s.413-1.056 1.325-1.59c.53 0 .53 1.59.53 1.59"/><path fill="#FFF" stroke="#FFF" d="M5.035 12.515a.265.265 0 1 1-.53 0 .265.265 0 0 1 .53 0zM7.915 7.347c-.22.38-.5.63-.627.556-.127-.073-.052-.44.168-.82.22-.38.5-.63.627-.557.127.074.051.441-.168.821z"/></g></svg>