<svg xmlns="http://www.w3.org/2000/svg" width="26" height="24" viewBox="0 0 26 24"><g fill="none" fill-rule="evenodd"><g fill="#000" fill-rule="nonzero" transform="translate(2.59 2.65)"><circle cx="1.59" cy="3.71" r="1.458"/><circle cx="5.83" cy="2.12" r="1.458"/><circle cx="10.335" cy="1.59" r="1.458"/><circle cx="14.84" cy="2.12" r="1.458"/><circle cx="19.08" cy="3.71" r="1.458"/></g><path fill="#000" fill-rule="nonzero" stroke="#000" stroke-linejoin="round" stroke-width=".5" d="M5.77 13.78c4.505-.795 11.13-.795 14.31 0l1.325-6.625-3.975 6.095-.159-7.473-2.756 7.208-1.59-7.685-1.59 7.685-2.756-7.208-.159 7.473-3.975-6.095L5.77 13.78z"/><path fill="#000" fill-rule="nonzero" stroke="#000" stroke-linejoin="round" stroke-width=".5" d="M5.77 13.78c0 1.06.795 1.06 1.325 2.12.53.795.53.53.265 1.855-.795.53-.795 1.325-.795 1.325-.795.795.265 1.325.265 1.325 3.445.53 8.745.53 12.19 0 0 0 .795-.53 0-1.325 0 0 .265-.795-.53-1.325-.265-1.325-.265-1.06.265-1.855.53-1.06 1.325-1.06 1.325-2.12-4.505-.795-9.805-.795-14.31 0z"/><path stroke="#000" stroke-linejoin="round" stroke-width=".5" d="M6.83 20.405a18.55 18.55 0 0 0 12.19 0"/><path stroke="#FFF" stroke-linecap="round" stroke-linejoin="round" stroke-width=".5" d="M6.83 15.37a18.55 18.55 0 0 1 12.19 0M7.625 16.695h10.6m-11.13 1.59a18.55 18.55 0 0 0 11.66 0m-12.19 1.59a18.55 18.55 0 0 0 12.72 0"/></g></svg>