<svg xmlns="http://www.w3.org/2000/svg" width="23" height="24" viewBox="0 0 23 24"><g fill="none" fill-rule="evenodd" stroke="#000" stroke-width=".5"><path stroke-linecap="round" d="M11.925 6.164V3.18M10.6 4.24h2.65"/><path fill="#FFF" fill-rule="nonzero" d="M11.925 13.25s2.385-3.975 1.59-5.565c0 0-.53-1.325-1.59-1.325s-1.59 1.325-1.59 1.325c-.795 1.59 1.59 5.565 1.59 5.565"/><path fill="#FFF" fill-rule="nonzero" stroke-linecap="round" stroke-linejoin="round" d="M6.095 19.61c2.915 1.855 8.215 1.855 11.13 0V15.9s4.77-2.385 3.18-5.565c-2.12-3.445-7.155-1.855-8.48 2.12v1.855-1.855c-1.855-3.975-6.89-5.565-8.48-2.12-1.59 3.18 2.65 5.3 2.65 5.3v3.975z"/><path stroke-linecap="round" stroke-linejoin="round" d="M6.095 15.9c2.915-1.59 8.215-1.59 11.13 0m-11.13 1.855c2.915-1.59 8.215-1.59 11.13 0M6.095 19.61c2.915-1.59 8.215-1.59 11.13 0"/></g></svg>