<svg xmlns="http://www.w3.org/2000/svg" width="21" height="20" viewBox="0 0 21 20"><g fill="none" fill-rule="evenodd" stroke="#000" stroke-linejoin="round" stroke-width=".5"><path fill="#FFF" fill-rule="nonzero" stroke-linecap="round" d="M3.24 4.36a1.06 1.06 0 1 1-2.12 0 1.06 1.06 0 0 1 2.12 0zm8.745-2.385a1.06 1.06 0 1 1-2.12 0 1.06 1.06 0 0 1 2.12 0zM20.73 4.36a1.06 1.06 0 1 1-2.12 0 1.06 1.06 0 0 1 2.12 0zM7.48 2.505a1.06 1.06 0 1 1-2.12 0 1.06 1.06 0 0 1 2.12 0zm9.01.265a1.06 1.06 0 1 1-2.12 0 1.06 1.06 0 0 1 2.12 0z"/><path fill="#FFF" fill-rule="nonzero" d="M3.77 11.78c4.505-.795 11.13-.795 14.31 0l1.06-6.36-3.71 5.83V3.83l-2.915 7.155-1.59-7.95-1.59 7.95-2.915-7.42v7.685L2.71 5.42l1.06 6.36z"/><path fill="#FFF" fill-rule="nonzero" d="M3.77 11.78c0 1.06.795 1.06 1.325 2.12.53.795.53.53.265 1.855-.795.53-.795 1.325-.795 1.325-.795.795.265 1.325.265 1.325 3.445.53 8.745.53 12.19 0 0 0 .795-.53 0-1.325 0 0 .265-.795-.53-1.325-.265-1.325-.265-1.06.265-1.855.53-1.06 1.325-1.06 1.325-2.12-4.505-.795-9.805-.795-14.31 0z"/><path stroke-linecap="round" d="M5.095 13.9c1.855-.53 9.805-.53 11.66 0M5.36 15.755c3.18-.53 7.95-.53 11.13 0"/></g></svg>